<svg width="100" height="42" viewBox="0 0 100 42" fill="none" xmlns="http://www.w3.org/2000/svg">
<path d="M32.8 16.7C31.4 9.3 24.1 4.4 16.7 5.9C9.3 7.3 4.4 14.6 5.9 22C7.3 29.4 14.6 34.3 22 32.8C29.4 31.4 34.3 24.1 32.8 16.7ZM26.8 25.6L14.4 17.3L15.2 21.3C15.3 21.9 14.9 22.4 14.3 22.5C13.7 22.6 13.2 22.2 13.1 21.6L11.9 15.2C11.8 14.6 12.2 14.1 12.8 14L19.2 12.8C19.8 12.7 20.3 13.1 20.4 13.7C20.5 14.3 20.1 14.8 19.5 14.9L15.5 15.6L27.9 23.9C28.1 24 28.2 24.2 28.3 24.4C28.3 24.6 28.3 24.8 28.1 25C27.8 25.4 27.2 25.5 26.8 25.6Z" fill="white"/>
<text x="40" y="25" fill="white" font-family="SF Pro Display, -apple-system, BlinkMacSystemFont, sans-serif" font-size="16" font-weight="600">Catalyst</text>
</svg> 